<svg width="500" height="500" viewBox="0 0 500 500" fill="none" xmlns="http://www.w3.org/2000/svg">
<rect width="500" height="500" fill="#111315"/>
<rect x="100.5" y="97.5" width="299" height="305" rx="25.5" fill="#111315" stroke="#F3F1EC" stroke-width="7"/>
<path d="M364.595 294H312.305V287.07L355.565 225.75H312.62V218.82H364.805V225.54L321.335 287.07H364.595V294Z" fill="#F3F1EC"/>
<path d="M142.695 218.82V287.07H177.24V294H135.135V218.82H142.695ZM184.854 267.855V218.82H192.414V267.54C192.414 274.12 194.164 279.16 197.664 282.66C201.164 286.16 206.204 287.91 212.784 287.91C219.224 287.91 224.159 286.16 227.589 282.66C231.089 279.09 232.839 274.05 232.839 267.54V218.82H240.399V267.855C240.399 276.325 237.914 283.01 232.944 287.91C228.044 292.81 221.324 295.26 212.784 295.26C204.034 295.26 197.174 292.845 192.204 288.015C187.304 283.115 184.854 276.395 184.854 267.855ZM250.307 225.75V218.82H304.172V225.75H280.967V294H273.407V225.75H250.307Z" fill="#F3F1EC"/>
<rect x="179" y="379" width="142" height="27" fill="#111315"/>
<rect x="100.5" y="97.5" width="299" height="305" rx="25.5" fill="#111315" stroke="#F3F1EC" stroke-width="7"/>
<path d="M140.81 298.126H136.036V304H134.98V288.38H140.81C142.277 288.38 143.443 288.82 144.308 289.7C145.173 290.58 145.606 291.753 145.606 293.22C145.606 294.628 145.166 295.801 144.286 296.74C143.406 297.664 142.247 298.126 140.81 298.126ZM140.766 289.348H136.036V297.158H140.634C141.837 297.158 142.783 296.791 143.472 296.058C144.176 295.325 144.528 294.364 144.528 293.176C144.528 292.003 144.183 291.071 143.494 290.382C142.819 289.693 141.91 289.348 140.766 289.348ZM149.292 304H148.236V288.38H154C155.481 288.38 156.655 288.776 157.52 289.568C158.4 290.36 158.84 291.423 158.84 292.758C158.84 293.902 158.539 294.863 157.938 295.64C157.337 296.403 156.515 296.894 155.474 297.114L158.972 304H157.784L154.374 297.246H149.292V304ZM149.292 289.348V296.278H154.044C155.217 296.278 156.127 295.97 156.772 295.354C157.432 294.738 157.762 293.887 157.762 292.802C157.762 291.702 157.425 290.851 156.75 290.25C156.075 289.649 155.159 289.348 154 289.348H149.292ZM173.625 290.382C175.004 291.893 175.693 293.829 175.693 296.19C175.693 298.551 175.004 300.487 173.625 301.998C172.247 303.509 170.472 304.264 168.301 304.264C166.131 304.264 164.356 303.509 162.977 301.998C161.613 300.487 160.931 298.551 160.931 296.19C160.931 293.829 161.621 291.893 162.999 290.382C164.378 288.871 166.145 288.116 168.301 288.116C170.472 288.116 172.247 288.871 173.625 290.382ZM172.855 301.294C174.029 299.974 174.615 298.273 174.615 296.19C174.615 294.107 174.029 292.413 172.855 291.108C171.682 289.788 170.164 289.128 168.301 289.128C166.453 289.128 164.943 289.788 163.769 291.108C162.596 292.413 162.009 294.107 162.009 296.19C162.009 298.273 162.596 299.974 163.769 301.294C164.943 302.599 166.453 303.252 168.301 303.252C170.164 303.252 171.682 302.599 172.855 301.294ZM184.488 298.126H179.714V304H178.658V288.38H184.488C185.954 288.38 187.12 288.82 187.986 289.7C188.851 290.58 189.284 291.753 189.284 293.22C189.284 294.628 188.844 295.801 187.964 296.74C187.084 297.664 185.925 298.126 184.488 298.126ZM184.444 289.348H179.714V297.158H184.312C185.514 297.158 186.46 296.791 187.15 296.058C187.854 295.325 188.206 294.364 188.206 293.176C188.206 292.003 187.861 291.071 187.172 290.382C186.497 289.693 185.588 289.348 184.444 289.348ZM192.97 304H191.914V288.38H197.678C199.159 288.38 200.332 288.776 201.198 289.568C202.078 290.36 202.518 291.423 202.518 292.758C202.518 293.902 202.217 294.863 201.616 295.64C201.014 296.403 200.193 296.894 199.152 297.114L202.65 304H201.462L198.052 297.246H192.97V304ZM192.97 289.348V296.278H197.722C198.895 296.278 199.804 295.97 200.45 295.354C201.11 294.738 201.44 293.887 201.44 292.802C201.44 291.702 201.102 290.851 200.428 290.25C199.753 289.649 198.836 289.348 197.678 289.348H192.97ZM206.763 288.38V304H205.707V288.38H206.763ZM219.908 304H210.712V288.38H219.886V289.348H211.768V295.684H219.16V296.652H211.768V303.032H219.908V304ZM227.594 304H223.216V288.38H227.594C229.956 288.38 231.855 289.099 233.292 290.536C234.744 291.959 235.47 293.843 235.47 296.19C235.47 298.537 234.744 300.429 233.292 301.866C231.855 303.289 229.956 304 227.594 304ZM227.594 289.348H224.272V303.032H227.594C229.648 303.032 231.29 302.416 232.522 301.184C233.769 299.937 234.392 298.273 234.392 296.19C234.392 294.093 233.776 292.428 232.544 291.196C231.327 289.964 229.677 289.348 227.594 289.348ZM237.296 304H236.24L242.026 288.38H243.588L249.44 304H248.362L246.712 299.622H238.924L237.296 304ZM242.664 289.502L239.276 298.654H246.36L242.928 289.502C242.913 289.473 242.891 289.429 242.862 289.37C242.847 289.311 242.833 289.26 242.818 289.216C242.803 289.172 242.796 289.135 242.796 289.106C242.767 289.223 242.723 289.355 242.664 289.502ZM256.126 304H251.748V288.38H256.126C258.487 288.38 260.386 289.099 261.824 290.536C263.276 291.959 264.002 293.843 264.002 296.19C264.002 298.537 263.276 300.429 261.824 301.866C260.386 303.289 258.487 304 256.126 304ZM256.126 289.348H252.804V303.032H256.126C258.179 303.032 259.822 302.416 261.054 301.184C262.3 299.937 262.924 298.273 262.924 296.19C262.924 294.093 262.308 292.428 261.076 291.196C259.858 289.964 258.208 289.348 256.126 289.348ZM276.176 304H266.98V288.38H276.154V289.348H268.036V295.684H275.428V296.652H268.036V303.032H276.176V304ZM136.036 318.38V334H134.98V318.38H136.036ZM141.042 334H139.986V318.38H141.064L150.216 332.218V318.38H151.272V334H150.216L141.042 320.118V334ZM153.48 319.348V318.38H164.348V319.348H159.442V334H158.386V319.348H153.48ZM175.737 334H166.541V318.38H175.715V319.348H167.597V325.684H174.989V326.652H167.597V333.032H175.737V334ZM180.1 318.38V333.032H187.536V334H179.044V318.38H180.1ZM199.155 334H189.959V318.38H199.133V319.348H191.015V325.684H198.407V326.652H191.015V333.032H199.155V334ZM208.71 334.242C206.569 334.242 204.824 333.494 203.474 331.998C202.14 330.502 201.472 328.566 201.472 326.19C201.472 323.799 202.147 321.856 203.496 320.36C204.86 318.864 206.628 318.116 208.798 318.116C210.397 318.116 211.79 318.571 212.978 319.48C214.166 320.389 214.929 321.585 215.266 323.066H214.1C213.748 321.849 213.088 320.888 212.12 320.184C211.152 319.48 210.023 319.128 208.732 319.128C206.899 319.128 205.41 319.781 204.266 321.086C203.122 322.391 202.55 324.093 202.55 326.19C202.55 328.287 203.122 329.989 204.266 331.294C205.41 332.585 206.899 333.23 208.732 333.23C210.023 333.23 211.16 332.9 212.142 332.24C213.14 331.565 213.822 330.663 214.188 329.534H215.354C214.988 330.942 214.188 332.079 212.956 332.944C211.739 333.809 210.324 334.242 208.71 334.242ZM215.57 319.348V318.38H226.438V319.348H221.532V334H220.476V319.348H215.57ZM228.52 328.698V318.38H229.576V328.676C229.576 330.143 229.965 331.272 230.742 332.064C231.534 332.841 232.664 333.23 234.13 333.23C235.568 333.23 236.675 332.841 237.452 332.064C238.23 331.272 238.618 330.143 238.618 328.676V318.38H239.674V328.698C239.674 330.443 239.183 331.807 238.2 332.79C237.218 333.773 235.861 334.264 234.13 334.264C232.37 334.264 230.992 333.773 229.994 332.79C229.012 331.807 228.52 330.443 228.52 328.698ZM242.259 334H241.203L246.989 318.38H248.551L254.403 334H253.325L251.675 329.622H243.887L242.259 334ZM247.627 319.502L244.239 328.654H251.323L247.891 319.502C247.876 319.473 247.854 319.429 247.825 319.37C247.81 319.311 247.796 319.26 247.781 319.216C247.766 319.172 247.759 319.135 247.759 319.106C247.73 319.223 247.686 319.355 247.627 319.502ZM257.766 318.38V333.032H265.202V334H256.71V318.38H257.766Z" fill="#F5F5F5"/>
<path d="M363.595 271H311.305V264.07L354.565 202.75H311.62V195.82H363.805V202.54L320.335 264.07H363.595V271Z" fill="#F3F1EC"/>
<path d="M142.695 195.82V264.07H177.24V271H135.135V195.82H142.695ZM184.854 244.855V195.82H192.414V244.54C192.414 251.12 194.164 256.16 197.664 259.66C201.164 263.16 206.204 264.91 212.784 264.91C219.224 264.91 224.159 263.16 227.589 259.66C231.089 256.09 232.839 251.05 232.839 244.54V195.82H240.399V244.855C240.399 253.325 237.914 260.01 232.944 264.91C228.044 269.81 221.324 272.26 212.784 272.26C204.034 272.26 197.174 269.845 192.204 265.015C187.304 260.115 184.854 253.395 184.854 244.855ZM250.307 202.75V195.82H304.172V202.75H280.967V271H273.407V202.75H250.307Z" fill="#F3F1EC"/>
<rect x="179" y="379" width="142" height="27" fill="#111315"/>
</svg>
